HIERARCHY
ROOT Hips
{
  OFFSET -383.564 90.0711 1452.72
  CHANNELS 6 Xposition Yposition Zposition Zrotation Xrotation Yrotation
  JOINT Spine
  {
    OFFSET 0 8 0
    CHANNELS 6 Xposition Yposition Zposition Zrotation Xrotation Yrotation
    JOINT Spine1
    {
      OFFSET 0 8 0
      CHANNELS 6 Xposition Yposition Zposition Zrotation Xrotation Yrotation
      JOINT Spine2
      {
        OFFSET 0 8 0
        CHANNELS 6 Xposition Yposition Zposition Zrotation Xrotation Yrotation
        JOINT Spine3
        {
          OFFSET 0 8 0
          CHANNELS 6 Xposition Yposition Zposition Zrotation Xrotation Yrotation
          JOINT Neck
          {
            OFFSET 0 17 0
            CHANNELS 6 Xposition Yposition Zposition Zrotation Xrotation Yrotation
            JOINT Head
            {
              OFFSET 0 10.8 0
              CHANNELS 6 Xposition Yposition Zposition Zrotation Xrotation Yrotation
              End Site
              {
                OFFSET 0 20.25 0
              }
            }
          }
          JOINT LeftShoulder
          {
            OFFSET 5 17 0
            CHANNELS 6 Xposition Yposition Zposition Zrotation Xrotation Yrotation
            JOINT LeftShoulder2
            {
              OFFSET 6.45 0 0
              CHANNELS 6 Xposition Yposition Zposition Zrotation Xrotation Yrotation
              JOINT LeftArm
              {
                OFFSET 6.45 0 0
                CHANNELS 6 Xposition Yposition Zposition Zrotation Xrotation Yrotation
                JOINT LeftForeArm
                {
                  OFFSET 0 -32.4 -2
                  CHANNELS 6 Xposition Yposition Zposition Zrotation Xrotation Yrotation
                  JOINT LeftHand
                  {
                    OFFSET 0 -25.65 2
                    CHANNELS 6 Xposition Yposition Zposition Zrotation Xrotation Yrotation
                    JOINT LeftHandThumb1
                    {
                      OFFSET -0.5 -1.5 2.65
                      CHANNELS 6 Xposition Yposition Zposition Zrotation Xrotation Yrotation
                      JOINT LeftHandThumb2
                      {
                        OFFSET 0 -3.8 3.7
                        CHANNELS 6 Xposition Yposition Zposition Zrotation Xrotation Yrotation
                        JOINT LeftHandThumb3
                        {
                          OFFSET 0 -3 2.7
                          CHANNELS 6 Xposition Yposition Zposition Zrotation Xrotation Yrotation
                          End Site
                          {
                            OFFSET 0 -2.3 1.8
                          }
                        }
                      }
                    }
                    JOINT LeftHandIndex
                    {
                      OFFSET 0 -1.9 1.6
                      CHANNELS 6 Xposition Yposition Zposition Zrotation Xrotation Yrotation
                      JOINT LeftHandIndex1
                      {
                        OFFSET 0 -8.3 1.9
                        CHANNELS 6 Xposition Yposition Zposition Zrotation Xrotation Yrotation
                        JOINT LeftHandIndex2
                        {
                          OFFSET 0 -4.5 0
                          CHANNELS 6 Xposition Yposition Zposition Zrotation Xrotation Yrotation
                          JOINT LeftHandIndex3
                          {
                            OFFSET 0 -3.4 0
                            CHANNELS 6 Xposition Yposition Zposition Zrotation Xrotation Yrotation
                            End Site
                            {
                              OFFSET 0 -2.6 0
                            }
                          }
                        }
                      }
                    }
                    JOINT LeftHandMiddle
                    {
                      OFFSET -0.25 -2.2 0.4
                      CHANNELS 6 Xposition Yposition Zposition Zrotation Xrotation Yrotation
                      JOINT LeftHandMiddle1
                      {
                        OFFSET 0 -8.3 1
                        CHANNELS 6 Xposition Yposition Zposition Zrotation Xrotation Yrotation
                        JOINT LeftHandMiddle2
                        {
                          OFFSET 0 -4.65 0
                          CHANNELS 6 Xposition Yposition Zposition Zrotation Xrotation Yrotation
                          JOINT LeftHandMiddle3
                          {
                            OFFSET 0 -3.3 0
                            CHANNELS 6 Xposition Yposition Zposition Zrotation Xrotation Yrotation
                            End Site
                            {
                              OFFSET 0 -2.7 0
                            }
                          }
                        }
                      }
                    }
                    JOINT LeftHandRing
                    {
                      OFFSET -0.5 -2.15 -0.8
                      CHANNELS 6 Xposition Yposition Zposition Zrotation Xrotation Yrotation
                      JOINT LeftHandRing1
                      {
                        OFFSET 0 -7.75 -0.2
                        CHANNELS 6 Xposition Yposition Zposition Zrotation Xrotation Yrotation
                        JOINT LeftHandRing2
                        {
                          OFFSET 0 -3.8 0
                          CHANNELS 6 Xposition Yposition Zposition Zrotation Xrotation Yrotation
                          JOINT LeftHandRing3
                          {
                            OFFSET 0 -3.4 0
                            CHANNELS 6 Xposition Yposition Zposition Zrotation Xrotation Yrotation
                            End Site
                            {
                              OFFSET 0 -2.6 0
                            }
                          }
                        }
                      }
                    }
                    JOINT LeftHandPinky
                    {
                      OFFSET -0.75 -1.75 -1.85
                      CHANNELS 6 Xposition Yposition Zposition Zrotation Xrotation Yrotation
                      JOINT LeftHandPinky1
                      {
                        OFFSET 0 -7.15 -1
                        CHANNELS 6 Xposition Yposition Zposition Zrotation Xrotation Yrotation
                        JOINT LeftHandPinky2
                        {
                          OFFSET 0 -3 0
                          CHANNELS 6 Xposition Yposition Zposition Zrotation Xrotation Yrotation
                          JOINT LeftHandPinky3
                          {
                            OFFSET 0 -2.35 0
                            CHANNELS 6 Xposition Yposition Zposition Zrotation Xrotation Yrotation
                            End Site
                            {
                              OFFSET 0 -2.1 0
                            }
                          }
                        }
                      }
                    }
                  }
                }
              }
            }
          }
          JOINT RightShoulder
          {
            OFFSET -5 17 0
            CHANNELS 6 Xposition Yposition Zposition Zrotation Xrotation Yrotation
            JOINT RightShoulder2
            {
              OFFSET -6.45 0 0
              CHANNELS 6 Xposition Yposition Zposition Zrotation Xrotation Yrotation
              JOINT RightArm
              {
                OFFSET -6.45 0 0
                CHANNELS 6 Xposition Yposition Zposition Zrotation Xrotation Yrotation
                JOINT RightForeArm
                {
                  OFFSET 0 -32.4 -2
                  CHANNELS 6 Xposition Yposition Zposition Zrotation Xrotation Yrotation
                  JOINT RightHand
                  {
                    OFFSET 0 -25.65 2
                    CHANNELS 6 Xposition Yposition Zposition Zrotation Xrotation Yrotation
                    JOINT RightHandThumb1
                    {
                      OFFSET 0.5 -1.5 2.65
                      CHANNELS 6 Xposition Yposition Zposition Zrotation Xrotation Yrotation
                      JOINT RightHandThumb2
                      {
                        OFFSET 0 -3.8 3.7
                        CHANNELS 6 Xposition Yposition Zposition Zrotation Xrotation Yrotation
                        JOINT RightHandThumb3
                        {
                          OFFSET 0 -3 2.7
                          CHANNELS 6 Xposition Yposition Zposition Zrotation Xrotation Yrotation
                          End Site
                          {
                            OFFSET 0 -2.3 1.8
                          }
                        }
                      }
                    }
                    JOINT RightHandIndex
                    {
                      OFFSET 0 -1.9 1.6
                      CHANNELS 6 Xposition Yposition Zposition Zrotation Xrotation Yrotation
                      JOINT RightHandIndex1
                      {
                        OFFSET 0 -8.3 1.9
                        CHANNELS 6 Xposition Yposition Zposition Zrotation Xrotation Yrotation
                        JOINT RightHandIndex2
                        {
                          OFFSET 0 -4.5 0
                          CHANNELS 6 Xposition Yposition Zposition Zrotation Xrotation Yrotation
                          JOINT RightHandIndex3
                          {
                            OFFSET 0 -3.4 0
                            CHANNELS 6 Xposition Yposition Zposition Zrotation Xrotation Yrotation
                            End Site
                            {
                              OFFSET 0 -2.6 0
                            }
                          }
                        }
                      }
                    }
                    JOINT RightHandMiddle
                    {
                      OFFSET 0.25 -2.2 0.4
                      CHANNELS 6 Xposition Yposition Zposition Zrotation Xrotation Yrotation
                      JOINT RightHandMiddle1
                      {
                        OFFSET 0 -8.3 1
                        CHANNELS 6 Xposition Yposition Zposition Zrotation Xrotation Yrotation
                        JOINT RightHandMiddle2
                        {
                          OFFSET 0 -4.65 0
                          CHANNELS 6 Xposition Yposition Zposition Zrotation Xrotation Yrotation
                          JOINT RightHandMiddle3
                          {
                            OFFSET 0 -3.3 0
                            CHANNELS 6 Xposition Yposition Zposition Zrotation Xrotation Yrotation
                            End Site
                            {
                              OFFSET 0 -2.7 0
                            }
                          }
                        }
                      }
                    }
                    JOINT RightHandRing
                    {
                      OFFSET 0.5 -2.15 -0.8
                      CHANNELS 6 Xposition Yposition Zposition Zrotation Xrotation Yrotation
                      JOINT RightHandRing1
                      {
                        OFFSET 0 -7.75 -0.2
                        CHANNELS 6 Xposition Yposition Zposition Zrotation Xrotation Yrotation
                        JOINT RightHandRing2
                        {
                          OFFSET 0 -3.8 0
                          CHANNELS 6 Xposition Yposition Zposition Zrotation Xrotation Yrotation
                          JOINT RightHandRing3
                          {
                            OFFSET 0 -3.4 0
                            CHANNELS 6 Xposition Yposition Zposition Zrotation Xrotation Yrotation
                            End Site
                            {
                              OFFSET 0 -2.6 0
                            }
                          }
                        }
                      }
                    }
                    JOINT RightHandPinky
                    {
                      OFFSET 0.75 -1.75 -1.85
                      CHANNELS 6 Xposition Yposition Zposition Zrotation Xrotation Yrotation
                      JOINT RightHandPinky1
                      {
                        OFFSET 0 -7.15 -1
                        CHANNELS 6 Xposition Yposition Zposition Zrotation Xrotation Yrotation
                        JOINT RightHandPinky2
                        {
                          OFFSET 0 -3 0
                          CHANNELS 6 Xposition Yposition Zposition Zrotation Xrotation Yrotation
                          JOINT RightHandPinky3
                          {
                            OFFSET 0 -2.35 0
                            CHANNELS 6 Xposition Yposition Zposition Zrotation Xrotation Yrotation
                            End Site
                            {
                              OFFSET 0 -2.1 0
                            }
                          }
                        }
                      }
                    }
                  }
                }
              }
            }
          }
        }
      }
    }
  }
  JOINT LeftUpLeg
  {
    OFFSET 8 0 0
    CHANNELS 6 Xposition Yposition Zposition Zrotation Xrotation Yrotation
    JOINT LeftLeg
    {
      OFFSET 0 -45 -1
      CHANNELS 6 Xposition Yposition Zposition Zrotation Xrotation Yrotation
      JOINT LeftFoot
      {
        OFFSET 0 -41 -2
        CHANNELS 6 Xposition Yposition Zposition Zrotation Xrotation Yrotation
        JOINT LeftToeBase
        {
          OFFSET 0 -7.5 12.5
          CHANNELS 6 Xposition Yposition Zposition Zrotation Xrotation Yrotation
          JOINT LeftFootToe
          {
            OFFSET 0 0 4
            CHANNELS 6 Xposition Yposition Zposition Zrotation Xrotation Yrotation
            End Site
            {
              OFFSET 0 0 0
            }
          }
        }
      }
    }
  }
  JOINT RightUpLeg
  {
    OFFSET -8 0 0
    CHANNELS 6 Xposition Yposition Zposition Zrotation Xrotation Yrotation
    JOINT RightLeg
    {
      OFFSET 0 -45 -1
      CHANNELS 6 Xposition Yposition Zposition Zrotation Xrotation Yrotation
      JOINT RightFoot
      {
        OFFSET 0 -41 -2
        CHANNELS 6 Xposition Yposition Zposition Zrotation Xrotation Yrotation
        JOINT RightToeBase
        {
          OFFSET 0 -7.5 12.5
          CHANNELS 6 Xposition Yposition Zposition Zrotation Xrotation Yrotation
          JOINT RightFootToe
          {
            OFFSET 0 0 4
            CHANNELS 6 Xposition Yposition Zposition Zrotation Xrotation Yrotation
            End Site
            {
              OFFSET 0 0 0
            }
          }
        }
      }
    }
  }
}
MOTION
Frames:	3
Frame Time:	0.0111111
-293.416 93.318 868.2 -0.873321 0.0543661 176.947 2.84217e-14 8 0 0.382402 -0.70167 -1.56523 5.68434e-14 8 1.13687e-13 -0.648739 0.325442 1.18173 2.84217e-14 8 -1.13687e-13 -0.318835 0.164459 0.59896 -2.84217e-14 8 0 -0.318811 0.164447 0.598915 5.68434e-14 17 0 -2.49191 -7.65357 -0.278625 0 10.8 0 -1.87247 -14.253 -0.693957 5 17 0 -6.657 -10.5754 6.13567 6.45 0 -1.13687e-13 -0.742123 -2.03529 2.02958 6.45 0 0 40.6577 -15.5618 16.1081 0 -32.4 -2 -58.5095 -37.2058 -37.0709 0 -25.65 2 -22.5601 -1.98801 -6.97921 -0.5 -1.5 2.65 14.9565 0.665675 -17.9672 0 -3.8 3.7 -0.0115519 19.3509 -0.00118338 0 -3 2.7 -0.00959722 15.8148 0.00504041 0 -1.9 1.6 9.54166e-15 -7.95139e-16 -0 0 -8.3 1.9 -1.17594 -0.599121 0.0973658 5.68434e-14 -4.5 -1.42109e-14 9.33121e-05 0.00362737 0.0020339 0 -3.4 0 9.37294e-05 0.00332181 0.0019446 -0.25 -2.2 0.4 9.54166e-15 -7.95139e-16 -0 0 -8.3 1 -2.29551 -5.19592 0.0885103 -1.13687e-13 -4.65 3.55271e-15 -5.73676e-11 5.81424e-05 5.65291e-05 0 -3.3 -7.10543e-15 -5.68455e-11 5.83318e-05 5.58483e-05 -0.5 -2.15 -0.8 9.54166e-15 -7.95139e-16 -0 5.68434e-14 -7.75 -0.2 -1.54414 -7.14723 -0.0108294 -5.68434e-14 -3.8 -1.42109e-14 -3.78095e-09 0.000218936 0.000989479 0 -3.4 -7.10543e-15 -2.95468e-09 0.000205436 0.000824056 -0.75 -1.75 -1.85 9.54166e-15 -7.95139e-16 -0 -5.68434e-14 -7.15 -1 -0.957554 -8.17544 0.0787844 0 -3 -7.10543e-15 -8.21096e-12 -1.54681e-05 -3.04499e-05 0 -2.35 0 -7.30483e-12 -1.01572e-05 -4.12417e-05 -5 17 -1.13687e-13 -5.83371 -3.05312 8.02373 -6.45 2.84217e-14 0 -2.63199 1.65427 -3.74566 -6.45 0 1.13687e-13 -88.6537 -58.167 -26.2889 0 -32.4 -2 -9.09236 -50.1092 -32.7377 2.84217e-14 -25.65 2 5.80202 -9.57529 -26.9868 0.5 -1.5 2.65 3.6474 6.58753 4.70656 0 -3.8 3.7 1.38539 31.5576 -0.503431 5.68434e-14 -3 2.7 0.150062 25.8213 -0.148703 0 -1.9 1.6 -1.76556e-31 -6.36111e-15 -1.59028e-15 5.68434e-14 -8.3 1.9 20.0014 6.66849 -1.3378 5.68434e-14 -4.5 0 1.75933e-08 -0.00560887 0.000179719 -5.68434e-14 -3.4 0 1.34587e-08 -0.00535293 0.000144057 0.25 -2.2 0.4 -1.76556e-31 -6.36111e-15 -1.59028e-15 0 -8.3 1 21.915 5.80435 -1.52108 0 -4.65 -1.13687e-13 76.9245 0.000760566 -0.00651858 0 -3.3 0 60.9571 -0.00642548 -0.00491771 0.5 -2.15 -0.8 -1.76556e-31 -6.36111e-15 -1.59028e-15 0 -7.75 -0.2 27.9763 2.12636 -1.43083 0 -3.8 0 41.0031 0.0036335 0.000861841 0 -3.4 1.13687e-13 28.7 0.000834726 -0.0010112 0.75 -1.75 -1.85 -1.76556e-31 -6.36111e-15 -1.59028e-15 0 -7.15 -1 27.6909 -0.532591 -0.890904 0 -3 1.13687e-13 63.6038 0.00119108 -0.00163378 0 -2.35 0 45.2733 0.00333483 0.00147987 8 1.42109e-14 0 -0.977394 -2.6216 -1.97032 5.68434e-14 -45 -1 0.000724373 3.98153 -0.285741 2.84217e-14 -41 -2 0.0344269 -1.35057 -17.6979 0 -7.5 12.5 -4.9502e-18 -1.94126e-18 3.18055e-15 0 0 4 -0.933031 -0.559612 42.4047 -8 0 -1.13687e-13 -3.59899 -2.39224 -0.700725 0 -45 -1 0.0126338 6.11946 -1.15721 0 -41 -2 2.75891 -3.66854 8.95103 0 -7.5 12.5 -7.76503e-19 -6.21202e-18 -7.95139e-16 0 1.11022e-16 4 -0.410989 -0.822404 34.3323 
-293.415 93.3175 868.194 -0.875505 0.0543654 176.933 0 8 -1.13687e-13 0.383318 -0.693322 -1.56541 -2.84217e-14 8 0 -0.650229 0.321609 1.18631 0 8 0 -0.319047 0.162458 0.598983 0 8 0 -0.319023 0.162446 0.598938 0 17 0 -2.49234 -7.63264 -0.278517 1.13687e-13 10.8 0 -1.88428 -14.2436 -0.699433 5 17 -1.13687e-13 -6.65953 -10.56 6.13583 6.45 0 0 -0.742328 -2.03439 2.02924 6.45 0 0 40.721 -15.5581 16.1488 0 -32.4 -2 -58.5662 -37.1844 -37.1186 2.84217e-14 -25.65 2 -22.8188 -1.99521 -7.01818 -0.5 -1.5 2.65 15.0941 0.739372 -17.8745 0 -3.8 3.7 -0.0115522 19.3574 -0.00115596 0 -3 2.7 -0.00954062 15.7421 0.00498376 0 -1.9 1.6 9.54166e-15 1.59028e-15 -1.98785e-15 5.68434e-14 -8.3 1.9 -1.17815 -0.75269 0.093678 0 -4.5 -1.42109e-14 9.49843e-05 0.00361262 0.00201905 -5.68434e-14 -3.4 0 9.54088e-05 0.00330855 0.00192722 -0.25 -2.2 0.4 9.54166e-15 1.59028e-15 -1.98785e-15 5.68434e-14 -8.3 1 -2.33701 -5.37696 0.0864955 5.68434e-14 -4.65 3.55271e-15 -5.66167e-11 5.77671e-05 5.61642e-05 -5.68434e-14 -3.3 1.06581e-14 -5.61234e-11 5.79553e-05 5.54878e-05 -0.5 -2.15 -0.8 9.54166e-15 1.59028e-15 -1.98785e-15 0 -7.75 -0.2 -1.57852 -7.28611 -0.0114166 -5.68434e-14 -3.8 7.10543e-15 -3.73336e-09 0.000217489 0.000983526 -5.68434e-14 -3.4 -1.42109e-14 -2.91648e-09 0.000204078 0.000818815 -0.75 -1.75 -1.85 9.54166e-15 1.59028e-15 -1.98785e-15 0 -7.15 -1 -0.983301 -8.28305 0.0800295 0 -3 -7.10543e-15 -7.59329e-12 -1.36793e-05 -3.17779e-05 0 -2.35 7.10543e-15 -6.24664e-12 -8.41391e-06 -4.24724e-05 -5 17 -1.13687e-13 -5.83457 -3.03601 8.03598 -6.45 0 0 -2.63189 1.655 -3.74524 -6.45 0 0 -88.6495 -58.1552 -26.279 0 -32.4 -2 -9.08386 -50.1067 -32.7066 0 -25.65 2 5.81004 -9.57827 -26.9273 0.5 -1.5 2.65 3.62882 6.57783 4.70184 5.68434e-14 -3.8 3.7 1.38088 31.6007 -0.502428 5.68434e-14 -3 2.7 0.150059 25.91 -0.148639 0 -1.9 1.6 -1.59028e-15 6.36111e-15 -0 0 -8.3 1.9 20.0128 6.6841 -1.33949 0 -4.5 0 1.70954e-08 -0.0056192 0.000174312 -5.68434e-14 -3.4 -1.13687e-13 1.3e-08 -0.00536359 0.00013887 0.25 -2.2 0.4 -1.59028e-15 6.36111e-15 -0 5.68434e-14 -8.3 1 21.9294 5.81704 -1.5225 -5.68434e-14 -4.65 0 76.9042 0.000773553 -0.00652251 -5.68434e-14 -3.3 0 60.9267 -0.00646954 -0.00496414 0.5 -2.15 -0.8 -1.59028e-15 6.36111e-15 -0 0 -7.75 -0.2 27.9952 2.13283 -1.43085 1.13687e-13 -3.8 1.13687e-13 40.9755 0.00369307 0.000844781 0 -3.4 0 28.683 0.000853614 -0.000967371 0.75 -1.75 -1.85 -1.59028e-15 6.36111e-15 -0 5.68434e-14 -7.15 -1 27.7055 -0.526985 -0.892036 0 -3 0 63.5686 0.00123478 -0.00159166 0 -2.35 -1.13687e-13 45.2406 0.00339759 0.00150393 8 0 -1.13687e-13 -0.977812 -2.61817 -1.96904 8.52651e-14 -45 -1 0.000748355 3.98221 -0.285077 -2.84217e-14 -41 -2 0.0326508 -1.35671 -17.6889 0 -7.5 12.5 4.07664e-18 -3.88251e-19 -0 0 2.08167e-17 4 -0.932992 -0.559057 42.4047 -8 0 0 -3.60011 -2.39709 -0.706576 0 -45 -1 0.0128772 6.13291 -1.15784 2.84217e-14 -41 -2 2.75834 -3.67665 8.97097 -5.68434e-14 -7.5 12.5 1.16475e-18 -6.21202e-18 -0 0 0 4 -0.407699 -0.821383 34.3322 
-293.415 93.317 868.189 -0.877436 0.0544864 176.917 -2.84217e-14 8 1.13687e-13 0.384054 -0.684528 -1.56557 2.84217e-14 8 0 -0.651042 0.317536 1.19238 -2.84217e-14 8 1.13687e-13 -0.319252 0.160438 0.599004 -5.68434e-14 8 0 -0.319228 0.160426 0.598959 5.68434e-14 17 0 -2.49274 -7.6113 -0.278046 -5.68434e-14 10.8 0 -1.89356 -14.2334 -0.699909 5 17 0 -6.662 -10.5451 6.13592 6.45 0 0 -0.742642 -2.0335 2.02563 6.45 0 0 40.7795 -15.5512 16.1897 0 -32.4 -2 -58.6237 -37.1552 -37.1621 0 -25.65 2 -23.0469 -2.01095 -7.03596 -0.5 -1.5 2.65 15.2014 0.806455 -17.8017 -5.68434e-14 -3.8 3.7 -0.0115529 19.3633 -0.00112909 -5.68434e-14 -3 2.7 -0.00948117 15.6271 0.00492682 5.68434e-14 -1.9 1.6 -3.18055e-15 7.95139e-16 -1.19271e-15 5.68434e-14 -8.3 1.9 -1.18031 -0.895596 0.0914232 -5.68434e-14 -4.5 0 9.66507e-05 0.00359788 0.00200426 0 -3.4 0 9.70824e-05 0.0032953 0.00190986 -0.25 -2.2 0.4 -3.18055e-15 7.95139e-16 -1.19271e-15 -1.13687e-13 -8.3 1 -2.37775 -5.55022 0.085835 1.13687e-13 -4.65 7.10543e-15 -5.58823e-11 5.73913e-05 5.57989e-05 -1.13687e-13 -3.3 7.10543e-15 -5.54082e-11 5.75783e-05 5.51269e-05 -0.5 -2.15 -0.8 -3.18055e-15 7.95139e-16 -1.19271e-15 0 -7.75 -0.2 -1.61307 -7.42288 -0.011955 0 -3.8 -7.10543e-15 -3.68602e-09 0.00021604 0.000977566 0 -3.4 -7.10543e-15 -2.87849e-09 0.000202719 0.000813568 -0.75 -1.75 -1.85 -3.18055e-15 7.95139e-16 -1.19271e-15 -5.68434e-14 -7.15 -1 -1.00951 -8.39157 0.0814087 0 -3 0 -6.86079e-12 -1.18903e-05 -3.31061e-05 0 -2.35 0 -5.07843e-12 -6.67039e-06 -4.37034e-05 -5 17 0 -5.83571 -3.01721 8.04734 -6.45 2.84217e-14 0 -2.63175 1.65572 -3.74483 -6.45 0 0 -88.6276 -58.1427 -26.2618 0 -32.4 -2 -9.0914 -50.113 -32.6919 -2.84217e-14 -25.65 2 5.83859 -9.57148 -26.8633 0.5 -1.5 2.65 3.61072 6.56342 4.69171 0 -3.8 3.7 1.37631 31.6541 -0.50149 0 -3 2.7 0.149831 25.9966 -0.148073 0 -1.9 1.6 -3.18055e-15 3.18055e-15 -7.95139e-15 0 -8.3 1.9 20.0326 6.70288 -1.34439 5.68434e-14 -4.5 0 1.65927e-08 -0.00562948 0.000168877 5.68434e-14 -3.4 0 1.2537e-08 -0.00537424 0.000133659 0.25 -2.2 0.4 -3.18055e-15 3.18055e-15 -7.95139e-15 0 -8.3 1 21.953 5.83312 -1.52769 0 -4.65 -1.13687e-13 76.8797 0.000786403 -0.00652495 -1.13687e-13 -3.3 -1.13687e-13 60.89 -0.00651196 -0.00500928 0.5 -2.15 -0.8 -3.18055e-15 3.18055e-15 -7.95139e-15 -5.68434e-14 -7.75 -0.2 28.0265 2.14176 -1.43544 0 -3.8 0 40.9416 0.00375303 0.00082714 -1.13687e-13 -3.4 0 28.6623 0.000871433 -0.000924177 0.75 -1.75 -1.85 -3.18055e-15 3.18055e-15 -7.95139e-15 0 -7.15 -1 27.7328 -0.519347 -0.893342 0 -3 0 63.5228 0.00127694 -0.00154897 1.13687e-13 -2.35 0 45.198 0.00346097 0.00152873 8 -1.42109e-14 1.13687e-13 -0.978107 -2.61486 -1.96518 5.68434e-14 -45 -1 0.000772748 3.98284 -0.284414 5.68434e-14 -41 -2 0.0306693 -1.36351 -17.6807 0 -7.5 12.5 -7.76503e-19 -7.76503e-19 -3.18055e-15 0 0 4 -0.932934 -0.558575 42.4048 -8 0 0 -3.60129 -2.40259 -0.71453 0 -45 -1 0.0130132 6.1473 -1.15848 5.68434e-14 -41 -2 2.75805 -3.68497 8.9929 5.68434e-14 -7.5 12.5 1.16475e-18 -1.2424e-17 -7.95139e-16 0 0 4 -0.40485 -0.820558 34.3321 
